<svg xmlns="http://www.w3.org/2000/svg" width="960" height="540" viewBox="0 0 960 540">
  <defs>
    <linearGradient id="g1" x1="0" y1="0" x2="1" y2="1"><stop offset="0%" stop-color="#388bfd"/><stop offset="100%" stop-color="#3fb950"/></linearGradient>
  </defs>
  <rect width="960" height="540" rx="0" fill="#0d1117"/>
  <rect x="0" y="0" width="200" height="540" fill="#161b22"/>
  <circle cx="30" cy="30" r="6" fill="#388bfd" opacity=".6"/><rect x="44" y="24" width="80" height="12" rx="3" fill="#1a2436"/>
  <rect x="16" y="60" width="168" height="32" rx="6" fill="#1a2436"/><rect x="16" y="100" width="168" height="32" rx="6" fill="rgba(56,139,253,.1)"/>
  <rect x="16" y="140" width="168" height="32" rx="6" fill="#1a2436"/><rect x="16" y="180" width="168" height="32" rx="6" fill="#1a2436"/>
  <rect x="16" y="220" width="168" height="32" rx="6" fill="#1a2436"/>
  <rect x="224" y="16" width="220" height="100" rx="10" fill="#161b22" stroke="rgba(56,139,253,.08)" stroke-width="1"/>
  <text x="246" y="46" font-family="sans-serif" font-size="11" fill="#4a5568" font-weight="700">MATCH SCORE</text>
  <text x="246" y="90" font-family="monospace" font-size="32" fill="#3fb950" font-weight="900">94%</text>
  <rect x="460" y="16" width="220" height="100" rx="10" fill="#161b22" stroke="rgba(56,139,253,.08)" stroke-width="1"/>
  <text x="482" y="46" font-family="sans-serif" font-size="11" fill="#4a5568" font-weight="700">APPLICATIONS</text>
  <text x="482" y="90" font-family="monospace" font-size="32" fill="#58a6ff" font-weight="900">28</text>
  <rect x="696" y="16" width="240" height="100" rx="10" fill="#161b22" stroke="rgba(56,139,253,.08)" stroke-width="1"/>
  <text x="718" y="46" font-family="sans-serif" font-size="11" fill="#4a5568" font-weight="700">INTERVIEWS</text>
  <text x="718" y="90" font-family="monospace" font-size="32" fill="#d29922" font-weight="900">5</text>
  <rect x="224" y="132" width="340" height="240" rx="10" fill="#161b22" stroke="rgba(56,139,253,.08)" stroke-width="1"/>
  <text x="246" y="162" font-family="sans-serif" font-size="11" fill="#4a5568" font-weight="700">🎯 TOP JOB MATCHES</text>
  <rect x="240" y="178" width="308" height="40" rx="6" fill="#1a2436"/><text x="256" y="202" font-family="sans-serif" font-size="12" fill="#e6edf3" font-weight="700">Software Intern — Google</text><text x="500" y="202" font-family="monospace" font-size="11" fill="#3fb950" font-weight="800">96%</text>
  <rect x="240" y="226" width="308" height="40" rx="6" fill="#1a2436"/><text x="256" y="250" font-family="sans-serif" font-size="12" fill="#e6edf3" font-weight="700">Frontend Dev — Swiggy</text><text x="500" y="250" font-family="monospace" font-size="11" fill="#3fb950" font-weight="800">91%</text>
  <rect x="240" y="274" width="308" height="40" rx="6" fill="#1a2436"/><text x="256" y="298" font-family="sans-serif" font-size="12" fill="#e6edf3" font-weight="700">Full Stack — Razorpay</text><text x="500" y="298" font-family="monospace" font-size="11" fill="#58a6ff" font-weight="800">85%</text>
  <rect x="580" y="132" width="356" height="240" rx="10" fill="#161b22" stroke="rgba(56,139,253,.08)" stroke-width="1"/>
  <text x="602" y="162" font-family="sans-serif" font-size="11" fill="#4a5568" font-weight="700">🤖 AI CAREER COACH</text>
  <rect x="596" y="178" width="280" height="70" rx="8" fill="#1a2436"/><text x="612" y="202" font-family="sans-serif" font-size="11" fill="#8b949e">Use the STAR method for your</text><text x="612" y="220" font-family="sans-serif" font-size="11" fill="#8b949e">Google behavioral round...</text>
  <rect x="224" y="388" width="712" height="136" rx="10" fill="#161b22" stroke="rgba(56,139,253,.08)" stroke-width="1"/>
  <text x="246" y="418" font-family="sans-serif" font-size="11" fill="#4a5568" font-weight="700">📊 APPLICATION PIPELINE</text>
  <rect x="240" y="434" width="150" height="70" rx="6" fill="rgba(88,166,255,.06)"/><text x="290" y="476" font-family="monospace" font-size="20" fill="#58a6ff" font-weight="900" text-anchor="middle">12</text><text x="290" y="494" font-family="sans-serif" font-size="9" fill="#4a5568" text-anchor="middle">Applied</text>
  <rect x="406" y="434" width="150" height="70" rx="6" fill="rgba(188,140,255,.06)"/><text x="456" y="476" font-family="monospace" font-size="20" fill="#bc8cff" font-weight="900" text-anchor="middle">5</text><text x="456" y="494" font-family="sans-serif" font-size="9" fill="#4a5568" text-anchor="middle">Interview</text>
  <rect x="572" y="434" width="150" height="70" rx="6" fill="rgba(63,185,80,.06)"/><text x="622" y="476" font-family="monospace" font-size="20" fill="#3fb950" font-weight="900" text-anchor="middle">3</text><text x="622" y="494" font-family="sans-serif" font-size="9" fill="#4a5568" text-anchor="middle">Offered</text>
</svg>
